<?xml version="1.0" encoding="utf-8"?>
<!-- Generator: Adobe Illustrator 19.1.0, SVG Export Plug-In . SVG Version: 6.00 Build 0)  -->
<svg version="1.1" xmlns="http://www.w3.org/2000/svg" xmlns:xlink="http://www.w3.org/1999/xlink" x="0px" y="0px"
	 viewBox="0 0 136.7 86.1" style="enable-background:new 0 0 136.7 86.1;" xml:space="preserve">
<style type="text/css">
	.st0{fill:url(#SVGID_1_);}
	.st1{fill:#FFFFFF;}
	.st2{fill:url(#SVGID_2_);}
	.st3{fill:#F2F2F2;}
	.st4{fill:#636261;}
	.st5{fill:url(#SVGID_3_);}
	.st6{fill:#F08A4E;}
	.st7{fill:#50D1F9;}
	.st8{fill:url(#SVGID_4_);}
	.st9{fill:#828282;}
	.st10{fill:#3A3A3A;}
	.st11{fill:#19DD7B;}
	.st12{fill:none;stroke:#DDDDDD;stroke-miterlimit:10;}
	.st13{fill:#EAEAEA;}
	.st14{fill:none;stroke:#CCCCCC;stroke-miterlimit:10;}
	.st15{fill:#686868;}
	.st16{fill:url(#SVGID_5_);}
	.st17{fill:#F5F5F5;}
	.st18{fill:#6F6F6E;}
	.st19{fill:#E2E2E2;}
	.st20{fill:#5E5E5E;}
	.st21{fill:#8C8C8C;}
	.st22{fill:#BABABA;}
	.st23{fill:none;stroke:#EFEFEF;stroke-miterlimit:10;}
	.st24{fill:none;stroke:#FCDC9A;stroke-miterlimit:10;}
	.st25{fill:none;}
	.st26{fill:url(#SVGID_6_);}
	.st27{fill:#E5394C;}
</style>
<g id="Lager_1">
	<g>
		<g>
			<g>
				<path class="st1" d="M48.6,84.9c0,0-0.1,0-0.1,0c-1.8,0-2.9-1.2-3.3-1.6c-0.1-0.1-0.1-0.1-0.2-0.2L11.4,49.5
					c-7.7-7.7-10.9-16.7-9.2-26c1.3-6.8,5.1-12.9,10.9-17c5.7-4.1,12.6-5.9,19.5-5c3.2,0.4,6.2,1.4,9,2.8c2,1,2.8,3.5,1.7,5.5
					c-1,2-3.5,2.8-5.5,1.7c-2-1-4.1-1.7-6.4-2c-9.9-1.3-19.5,5.6-21.3,15.4c-1.2,6.6,1.1,13,6.9,18.8l31.5,31.5L73.9,50
					c0.9-0.9,1.9-1.8,2.8-2.8c1.9-1.9,3.9-3.8,5.7-5.8c6.4-6.9,6.6-18,0.6-25.3c-3.4-4-8.4-6.5-13.8-6.7c-5.4-0.3-10.6,1.7-14.3,5.3
					c-1.6,1.6-4.2,1.5-5.8-0.1c-1.6-1.6-1.5-4.2,0.1-5.8c5.3-5.2,12.8-8,20.4-7.6c7.7,0.4,14.8,3.9,19.6,9.6
					c8.6,10.3,8.3,26.1-0.8,36c-2,2.1-4,4.2-6,6.1c-0.9,0.9-1.8,1.8-2.7,2.7L52,83.4C51.5,83.8,50.4,84.9,48.6,84.9z"/>
			</g>
		</g>
		<g>
			<g>
				<path class="st1" d="M88.1,84.9c-0.9,0-1.7-0.3-2.5-0.8C83.3,82.3,73,72,72.9,71.9c-1.6-1.6-1.6-4.2,0-5.8
					c1.6-1.6,4.2-1.6,5.8,0c1.9,1.9,6.3,6.2,9.2,9c2.5-2.7,5.1-5.2,7.6-7.7c2.9-2.9,6-5.9,9-9.2c0,0,0.1-0.1,0.1-0.1
					c2.6-2.6,5.2-5.1,7.7-7.4c2.5-2.3,5-4.8,7.5-7.2c4.3-4.7,8.8-11.9,6.3-20c-0.5-0.9-1-2-1.5-3.5c-2.4-4.6-6.7-8.1-11.9-9.7
					c-4.9-1.5-9.9-1.1-14.1,1.2c-2,1.1-4.4,0.4-5.5-1.6c-1.1-2-0.4-4.4,1.6-5.5c6.1-3.4,13.4-4.1,20.4-1.9
					c7.4,2.3,13.5,7.4,16.9,14.1c0.1,0.2,0.2,0.4,0.2,0.5c0.4,1.3,0.8,2.1,1.3,3c0.1,0.2,0.2,0.4,0.2,0.5c3.1,9.4,0.3,19.5-8,28.4
					c0,0-0.1,0.1-0.1,0.1c-2.6,2.6-5.2,5.1-7.7,7.4c-2.5,2.3-5,4.8-7.5,7.2c-3.1,3.3-6.2,6.4-9.2,9.4c-3.5,3.5-6.8,6.7-10.1,10.4
					C90.3,84.5,89.2,84.9,88.1,84.9z"/>
			</g>
			<g>
				<path class="st1" d="M60.7,57.9c-1,0-2.1-0.4-2.9-1.2c-1-1-2-2-3.1-3c-4.4-4.2-9.4-8.9-11.9-15.3c-4.8-12.3,0.1-26.7,11.2-33.3
					c10.6-6.3,24.5-4.7,33.2,3.8c1.6,1.6,1.6,4.1,0.1,5.8c-1.6,1.6-4.1,1.6-5.8,0.1c-6.1-5.9-15.9-7-23.4-2.6
					c-7.8,4.6-11.2,14.7-7.8,23.4c1.8,4.7,5.7,8.4,9.8,12.3c1.1,1,2.2,2.1,3.3,3.2c1.6,1.6,1.6,4.2,0,5.8
					C62.8,57.6,61.7,57.9,60.7,57.9z"/>
			</g>
		</g>
	</g>
</g>
<g id="Lager_2">
</g>
</svg>
