<?xml version="1.0" encoding="utf-8"?>
<!-- Generator: Adobe Illustrator 19.1.0, SVG Export Plug-In . SVG Version: 6.00 Build 0)  -->
<svg version="1.1" xmlns="http://www.w3.org/2000/svg" xmlns:xlink="http://www.w3.org/1999/xlink" x="0px" y="0px"
	 viewBox="0 0 501.4 120.7" style="enable-background:new 0 0 501.4 120.7;" xml:space="preserve">
<style type="text/css">
	.st0{fill:url(#SVGID_1_);}
	.st1{fill:#FFFFFF;}
	.st2{fill:url(#SVGID_2_);}
	.st3{fill:#F2F2F2;}
	.st4{fill:#636261;}
	.st5{fill:url(#SVGID_3_);}
	.st6{fill:#F08A4E;}
	.st7{fill:#50D1F9;}
	.st8{fill:url(#SVGID_4_);}
	.st9{fill:#828282;}
	.st10{fill:#3A3A3A;}
	.st11{fill:#19DD7B;}
	.st12{fill:none;stroke:#DDDDDD;stroke-miterlimit:10;}
	.st13{fill:#EAEAEA;}
	.st14{fill:none;stroke:#CCCCCC;stroke-miterlimit:10;}
	.st15{fill:#686868;}
	.st16{fill:url(#SVGID_5_);}
	.st17{fill:#F5F5F5;}
	.st18{fill:#6F6F6E;}
	.st19{fill:#E2E2E2;}
	.st20{fill:#5E5E5E;}
	.st21{fill:#8C8C8C;}
	.st22{fill:#BABABA;}
	.st23{fill:none;stroke:#EFEFEF;stroke-miterlimit:10;}
	.st24{fill:none;stroke:#FCDC9A;stroke-miterlimit:10;}
	.st25{fill:none;}
	.st26{fill:url(#SVGID_6_);}
	.st27{fill:#E5394C;}
</style>
<g id="Lager_1">
	<g>
		<g>
			<g>
				<g>
					<path class="st1" d="M67.9,117.8c0,0-0.1,0-0.1,0c-2.5-0.1-4-1.6-4.5-2.2c-0.1-0.1-0.2-0.2-0.3-0.3l-46-46
						C6.3,58.6,1.9,46.2,4.3,33.5c1.7-9.4,7-17.7,14.9-23.3C27.1,4.5,36.6,2,46,3.3c4.4,0.6,8.5,1.9,12.4,3.9
						c2.7,1.4,3.8,4.8,2.4,7.5c-1.4,2.7-4.8,3.8-7.5,2.4c-2.7-1.4-5.6-2.3-8.7-2.7c-13.6-1.8-26.8,7.7-29.3,21.2
						c-1.7,9.1,1.5,17.8,9.5,25.8l43.2,43.2l34.5-34.5c1.3-1.3,2.6-2.5,3.9-3.8c2.6-2.6,5.4-5.2,7.8-7.9c8.7-9.5,9.1-24.7,0.8-34.6
						c-4.6-5.5-11.5-8.9-18.9-9.2c-7.4-0.4-14.6,2.3-19.7,7.3c-2.2,2.2-5.7,2.1-7.9-0.1c-2.2-2.2-2.1-5.7,0.1-7.9
						c7.3-7.2,17.6-11,28-10.4c10.5,0.5,20.3,5.3,26.9,13.2c11.8,14.1,11.3,35.8-1.1,49.3c-2.7,2.9-5.5,5.7-8.3,8.4
						c-1.3,1.2-2.5,2.5-3.8,3.7l-37.9,37.9C71.9,116.3,70.4,117.8,67.9,117.8z"/>
				</g>
			</g>
			<g>
				<g>
					<path class="st1" d="M122,117.8c-1.2,0-2.4-0.4-3.4-1.2c-3.2-2.5-17.3-16.5-17.5-16.7c-2.2-2.2-2.2-5.7,0-7.9
						c2.2-2.2,5.7-2.2,7.9,0c2.6,2.6,8.6,8.5,12.6,12.3c3.5-3.7,7-7.2,10.4-10.6c4-4,8.2-8.1,12.3-12.6c0-0.1,0.1-0.1,0.1-0.1
						c3.5-3.5,7.1-6.9,10.6-10.2c3.4-3.2,6.9-6.5,10.3-9.9c5.9-6.4,12.1-16.4,8.6-27.5c-0.6-1.3-1.4-2.8-2.1-4.8
						c-3.3-6.3-9.2-11.2-16.3-13.4c-6.7-2.1-13.6-1.5-19.3,1.7c-2.7,1.5-6.1,0.5-7.6-2.2c-1.5-2.7-0.5-6.1,2.2-7.6
						c8.4-4.7,18.4-5.6,28-2.6c10.1,3.1,18.6,10.2,23.1,19.3c0.1,0.2,0.2,0.5,0.3,0.7c0.6,1.7,1.1,2.8,1.8,4.1
						c0.1,0.2,0.2,0.5,0.3,0.7c4.3,12.9,0.4,26.7-11,39c-0.1,0.1-0.1,0.1-0.2,0.2c-3.5,3.5-7.1,6.9-10.6,10.2
						c-3.4,3.2-6.9,6.5-10.3,9.9c-4.3,4.6-8.5,8.8-12.6,12.8c-4.8,4.8-9.3,9.2-13.8,14.2C125.1,117.2,123.6,117.8,122,117.8z"/>
				</g>
				<g>
					<path class="st1" d="M84.4,80.8c-1.4,0-2.9-0.5-3.9-1.6c-1.4-1.4-2.8-2.7-4.3-4.2c-6-5.7-12.9-12.2-16.3-20.9
						C53.4,37.2,60,17.5,75.3,8.4c14.5-8.6,33.7-6.5,45.6,5.2c2.2,2.2,2.3,5.7,0.1,7.9c-2.2,2.2-5.7,2.3-7.9,0.1
						c-8.4-8.2-21.9-9.6-32.1-3.6c-10.7,6.4-15.3,20.2-10.7,32.1c2.5,6.4,7.8,11.5,13.5,16.8c1.5,1.4,3.1,2.9,4.6,4.4
						c2.2,2.2,2.2,5.7,0,7.9C87.3,80.2,85.9,80.8,84.4,80.8z"/>
				</g>
			</g>
		</g>
		<g>
			<g>
				<path class="st1" d="M246.4,103.3h-0.6c-1.3,0-2.4-1.1-2.4-2.4V88.1h-14.1v12.9c0,1.3-1.1,2.4-2.4,2.4h-0.6
					c-1.3,0-2.4-1.1-2.4-2.4V70.8c0-1.3,1.1-2.4,2.4-2.4h0.6c1.3,0,2.4,1.1,2.4,2.4v12.5h14.1V70.8c0-1.3,1.1-2.4,2.4-2.4h0.6
					c1.3,0,2.4,1.1,2.4,2.4v30.1C248.8,102.2,247.7,103.3,246.4,103.3z"/>
				<path class="st1" d="M274,92.3c0,2.4-0.5,4.4-1.5,6.1c-1,1.7-2.4,3-4.2,3.9c-1.8,0.9-3.7,1.3-5.8,1.3c-1.1,0-2.2-0.1-3.2-0.3
					c-1-0.2-1.9-0.6-2.8-1.1c-0.1,0-0.1-0.1-0.2-0.1c-1.3-0.8-1.5-2.6-0.4-3.7l0.2-0.2c0.8-0.8,2-0.9,3-0.3c0.2,0.1,0.4,0.3,0.7,0.4
					c0.7,0.3,1.6,0.5,2.8,0.5c1.3,0,2.4-0.3,3.4-0.8c0.9-0.5,1.7-1.3,2.2-2.4c0.5-1,0.8-2.3,0.8-3.8V70.8c0-1.3,1.1-2.4,2.4-2.4h0.6
					c1.3,0,2.4,1.1,2.4,2.4V92.3z"/>
				<path class="st1" d="M304.5,103.3L304.5,103.3c-1.1,0-2.1-0.7-2.5-1.8l-1.8-5.2h-13.7l-1.8,5.2c-0.4,1.1-1.4,1.8-2.5,1.8h0
					c-1.8,0-3.1-1.8-2.5-3.5l10.8-29.6c0.4-1,1.4-1.7,2.5-1.7h0.6c1.1,0,2.1,0.7,2.5,1.7l10.8,29.6
					C307.6,101.5,306.3,103.3,304.5,103.3z M290.6,62.2c0,0.7-0.3,1.4-0.8,2c-0.5,0.6-1.2,0.8-2,0.8c-0.8,0-1.4-0.3-1.9-0.8
					c-0.5-0.6-0.8-1.2-0.8-2c0-0.7,0.3-1.4,0.8-1.9c0.5-0.5,1.2-0.8,1.9-0.8c0.7,0,1.4,0.3,1.9,0.8
					C290.3,60.8,290.6,61.5,290.6,62.2z M298.7,91.8l-5.3-15.4L288,91.8H298.7z M301.3,62.2c0,0.7-0.3,1.4-0.8,2
					c-0.5,0.6-1.2,0.8-2,0.8c-0.7,0-1.4-0.3-1.9-0.8c-0.6-0.6-0.8-1.2-0.8-2c0-0.7,0.3-1.4,0.8-1.9c0.6-0.5,1.2-0.8,1.9-0.8
					c0.8,0,1.4,0.3,1.9,0.8C301,60.8,301.3,61.5,301.3,62.2z"/>
				<path class="st1" d="M332.8,103.3h-17.4c-1.3,0-2.4-1.1-2.4-2.4V70.8c0-1.3,1.1-2.4,2.4-2.4h0.6c1.3,0,2.4,1.1,2.4,2.4v27.7
					h14.4c1.3,0,2.4,1.1,2.4,2.4v0C335.2,102.2,334.1,103.3,332.8,103.3z"/>
				<path class="st1" d="M365.6,79c0,2-0.5,3.8-1.4,5.4c-0.9,1.6-2.2,2.9-3.9,3.8c-1.7,0.9-3.7,1.4-5.9,1.4h-7.9v11
					c0,1.5-1.2,2.7-2.7,2.7l0,0c-1.5,0-2.7-1.2-2.7-2.7V71.1c0-1.5,1.2-2.7,2.7-2.7h10.6c1.6,0,3.2,0.3,4.6,0.8
					c1.4,0.5,2.6,1.3,3.6,2.2c1,0.9,1.7,2.1,2.2,3.3C365.3,76.1,365.6,77.5,365.6,79z M360.3,79c0-1.8-0.6-3.2-1.7-4.3
					c-1.1-1-2.6-1.5-4.5-1.5h-7.6v11.6h7.6c1.9,0,3.4-0.5,4.5-1.5C359.7,82.2,360.3,80.8,360.3,79z"/>
				<path class="st1" d="M391.9,103.3h-17.6c-1.3,0-2.4-1.1-2.4-2.4V70.8c0-1.3,1.1-2.4,2.4-2.4h17.6c1.3,0,2.4,1.1,2.4,2.4v0
					c0,1.3-1.1,2.4-2.4,2.4h-14.6v10.1h12.1c1.3,0,2.4,1.1,2.4,2.4l0,0c0,1.3-1.1,2.4-2.4,2.4h-12.1v10.5h14.6
					c1.3,0,2.4,1.1,2.4,2.4v0C394.2,102.2,393.2,103.3,391.9,103.3z"/>
				<path class="st1" d="M422.4,103.3h-0.1c-1,0-1.9-0.6-2.4-1.5l-5.9-11.7c-0.5-0.9-1.4-1.5-2.4-1.5h-4.9v12c0,1.5-1.2,2.7-2.7,2.7
					l0,0c-1.5,0-2.7-1.2-2.7-2.7V71.1c0-1.5,1.2-2.7,2.7-2.7H415c2.1,0,4,0.4,5.7,1.3c1.6,0.9,2.9,2.1,3.8,3.6
					c0.9,1.5,1.3,3.3,1.3,5.3c0,2.4-0.6,4.4-1.9,6c-1.3,1.6-2.9,2.7-5,3.3l6,11.5C425.7,101.2,424.4,103.3,422.4,103.3z M420.5,78.7
					c0-1.7-0.5-3-1.6-4c-1.1-1-2.5-1.5-4.3-1.5h-7.8v10.9h7.8c1.8,0,3.2-0.5,4.3-1.5C419.9,81.7,420.5,80.4,420.5,78.7z"/>
			</g>
			<g>
				<path class="st1" d="M249.2,41.6c0,2.3-0.6,4.2-1.8,5.9c-1.2,1.7-2.8,2.9-4.9,3.8c-2,0.9-4.3,1.3-6.8,1.3c-2.9,0-5.4-0.3-7.5-1
					c-0.5-0.2-1-0.4-1.5-0.6c-2.4-1.1-2.9-4.2-1.1-6.1l0.2-0.2c1.1-1.1,2.7-1.4,4.1-0.8c0.4,0.2,0.9,0.4,1.4,0.5
					c1.4,0.4,2.9,0.6,4.4,0.6c3.3,0,5-1,5-3.1c0-0.9-0.2-1.6-0.7-2.1c-0.5-0.5-1.2-0.8-2.3-0.9l-4.2-0.6c-3.1-0.4-5.4-1.5-7-3.1
					c-1.6-1.6-2.4-4-2.4-7c0-2.1,0.5-4,1.5-5.7s2.5-3,4.4-3.9c1.9-0.9,4.2-1.4,6.7-1.4c2.6,0,4.8,0.3,6.7,1c0.2,0.1,0.4,0.1,0.5,0.2
					c2.5,1,3.2,4.2,1.3,6.2l0,0c-1.1,1.1-2.7,1.4-4.2,0.8c-0.3-0.1-0.6-0.2-0.9-0.3c-1-0.2-2.3-0.4-3.7-0.4c-1.4,0-2.4,0.3-3.1,1
					s-1.1,1.4-1.1,2.2c0,0.6,0.2,1.2,0.7,1.6c0.5,0.5,1.3,0.9,2.4,1l4.2,0.6c3.1,0.4,5.3,1.4,6.9,2.9c0.9,0.9,1.6,1.9,2,3.2
					C249,38.4,249.2,39.9,249.2,41.6z"/>
				<g>
					<path class="st1" d="M259.7,25.1h-3.6c-1.8,0-2.4,0-3.3-0.5c-1.1-0.5-1.9-1.8-1.9-3.3c0-1.5,0.8-2.8,1.9-3.4
						c0.9-0.4,1.5-0.5,3.3-0.5h15.8c1.8,0,2.4,0,3.3,0.5c1.1,0.5,1.9,1.8,1.9,3.4c0,1.5-0.8,2.8-1.9,3.3c-0.9,0.4-1.5,0.5-3.3,0.5
						h-3.6v21.6c0,2,0,2.6-0.5,3.7c-0.6,1.2-2.1,2.1-3.8,2.1s-3.2-0.9-3.8-2.1c-0.5-1-0.5-1.7-0.5-3.7V25.1z"/>
					<path class="st1" d="M292.6,52.6c-4.3,0-7.2-1.3-9.7-3.8c-3.5-3.5-3.6-8-3.6-13.9s0-10.3,3.6-13.9c2.5-2.5,5.5-3.8,9.7-3.8
						c4.3,0,7.2,1.3,9.7,3.8c3.5,3.5,3.6,8,3.6,13.9s0,10.3-3.6,13.9C299.8,51.3,296.9,52.6,292.6,52.6z M297.3,34.9
						c0-6.4-0.5-7.5-1.3-8.6c-0.6-0.8-1.9-1.5-3.4-1.5c-1.6,0-2.8,0.7-3.4,1.5c-0.8,1-1.3,2.2-1.3,8.6s0.5,7.5,1.3,8.5
						c0.6,0.8,1.9,1.6,3.4,1.6c1.6,0,2.8-0.7,3.4-1.6C296.8,42.4,297.3,41.3,297.3,34.9z"/>
					<path class="st1" d="M314.2,21c2.5-2.5,5.5-3.8,9.6-3.8c4.3,0,6.6,0.7,8.8,2.6c2.6,2.4,3.3,4.9,3.3,6.5c0,1.5-0.4,2.5-1.2,3.3
						c-0.8,0.8-1.8,1.2-3,1.2c-1,0-1.7-0.2-2.3-0.7c-0.9-0.6-1.5-1.6-2.3-2.9c-1-1.7-2-2.4-3.5-2.4c-1.5,0-2.4,0.7-3.1,1.5
						c-1,1.3-1.3,2.8-1.3,8.6s0.3,7.2,1.3,8.6c0.6,0.8,1.6,1.5,3.1,1.5c1.5,0,2.6-0.7,3.5-2.4c0.7-1.3,1.3-2.2,2.3-2.9
						c0.6-0.4,1.3-0.7,2.3-0.7c1.1,0,2.2,0.4,3,1.2c0.8,0.8,1.2,1.7,1.2,3.3s-0.7,4.1-3.3,6.5c-2.2,1.9-4.5,2.6-8.8,2.6
						c-4.2,0-7.1-1.3-9.6-3.8c-3.5-3.5-3.6-8-3.6-13.9S310.7,24.6,314.2,21z"/>
					<path class="st1" d="M352.9,38l-3,3.5v5.2c0,2,0,2.6-0.5,3.7c-0.6,1.2-2.1,2.1-3.8,2.1s-3.2-0.9-3.8-2.1
						c-0.5-1-0.5-1.7-0.5-3.7V23.1c0-2,0-2.6,0.5-3.7c0.6-1.2,2.1-2.1,3.8-2.1s3.2,0.9,3.8,2.1c0.5,1,0.5,1.7,0.5,3.7v6.7l8.2-9.8
						c1.4-1.7,2.3-2.6,4-2.6c1,0,1.8,0.4,2.6,1c0.9,0.8,1.5,1.8,1.5,2.9c0,1.3-0.5,2.1-1.9,3.8l-5.5,6.6l7.6,13.4
						c1,1.7,1.3,2.5,1.3,3.5c0,1.5-0.7,2.6-2.1,3.4c-0.7,0.4-1.4,0.6-2.2,0.6c-2.2,0-3.3-1.7-4.2-3.4L352.9,38z"/>
					<path class="st1" d="M398.3,50.4c-0.6,1.2-2.1,2.1-3.8,2.1s-3.2-0.9-3.8-2.1c-0.5-1-0.5-1.7-0.5-3.7v-8.2h-9.1v8.2
						c0,2,0,2.6-0.5,3.7c-0.6,1.2-2.1,2.1-3.8,2.1s-3.2-0.9-3.8-2.1c-0.5-1-0.5-1.7-0.5-3.7V23.1c0-2,0-2.6,0.5-3.7
						c0.6-1.2,2.1-2.1,3.8-2.1s3.2,0.9,3.8,2.1c0.5,1,0.5,1.7,0.5,3.7v7.8h9.1v-7.8c0-2,0-2.6,0.5-3.7c0.6-1.2,2.1-2.1,3.8-2.1
						s3.2,0.9,3.8,2.1c0.5,1,0.5,1.7,0.5,3.7v23.7C398.8,48.7,398.8,49.4,398.3,50.4z"/>
					<path class="st1" d="M417.9,52.6c-4.3,0-7.2-1.3-9.7-3.8c-3.5-3.5-3.6-8-3.6-13.9s0-10.3,3.6-13.9c2.5-2.5,5.5-3.8,9.7-3.8
						c4.3,0,7.2,1.3,9.7,3.8c3.5,3.5,3.6,8,3.6,13.9s0,10.3-3.6,13.9C425.2,51.3,422.2,52.6,417.9,52.6z M422.6,34.9
						c0-6.4-0.5-7.5-1.3-8.6c-0.6-0.8-1.9-1.5-3.4-1.5s-2.8,0.7-3.4,1.5c-0.8,1-1.3,2.2-1.3,8.6s0.5,7.5,1.3,8.5
						c0.6,0.8,1.9,1.6,3.4,1.6s2.8-0.7,3.4-1.6C422.2,42.4,422.6,41.3,422.6,34.9z"/>
					<path class="st1" d="M442.3,52.3c-1.3,0-2.9,0-4.1-1.2c-1.2-1.2-1.2-2.8-1.2-4.1v-24c0-2,0-2.6,0.5-3.7
						c0.6-1.2,2.1-2.1,3.8-2.1s3.2,0.9,3.8,2.1c0.5,1,0.5,1.7,0.5,3.7v21.6h9.7c1.8,0,2.4,0,3.3,0.5c1.1,0.5,1.9,1.8,1.9,3.3
						s-0.8,2.8-1.9,3.4c-0.9,0.4-1.5,0.5-3.2,0.5H442.3z"/>
					<path class="st1" d="M465.1,22.6c0-1.8,0.2-3.1,1.2-4.1c0.8-0.8,1.7-1.1,2.9-1.1c1,0,1.8,0.2,2.5,0.7c0.9,0.6,1.5,1.4,2.1,2.4
						l7.5,12.8l7.5-12.8c0.6-1,1.2-1.9,2.1-2.4c0.8-0.5,1.5-0.7,2.5-0.7c1.2,0,2.1,0.4,2.9,1.1c1.1,1.1,1.2,2.3,1.2,4.1v24.2
						c0,2,0,2.6-0.5,3.7c-0.6,1.2-2.1,2.1-3.8,2.1c-1.7,0-3.2-0.9-3.8-2.1c-0.5-1-0.5-1.7-0.5-3.7V35.7l-4,6.9
						c-0.9,1.6-1.8,2.4-3.7,2.4s-2.8-0.8-3.7-2.4l-4-6.9v11.1c0,2,0,2.6-0.5,3.7c-0.6,1.2-2.1,2.1-3.8,2.1c-1.7,0-3.2-0.9-3.8-2.1
						c-0.5-1-0.5-1.7-0.5-3.7V22.6z"/>
				</g>
			</g>
		</g>
	</g>
</g>
<g id="Lager_2">
</g>
</svg>
